<?xml version="1.0" encoding="iso-8859-1"?>
<!-- Generator: Adobe Illustrator 18.0.0, SVG Export Plug-In . SVG Version: 6.00 Build 0)  -->
<!DOCTYPE svg PUBLIC "-//W3C//DTD SVG 1.1//EN" "http://www.w3.org/Graphics/SVG/1.1/DTD/svg11.dtd">
<svg version="1.1" id="Capa_1" xmlns="http://www.w3.org/2000/svg" xmlns:xlink="http://www.w3.org/1999/xlink" x="0px" y="0px"
	 viewBox="0 0 197.139 197.139" style="enable-background:new 0 0 197.139 197.139;" xml:space="preserve">
<path d="M188.317,15.447c-2.929-2.929-7.678-2.929-10.606,0l-33.815,33.815c-13.219-22.731-26.321-41.91-29.164-46.025
	C113.331,1.21,111.024,0,108.56,0c-2.464,0-4.771,1.21-6.171,3.238C96.27,12.1,42.601,90.786,42.601,124.435
	c0,7.805,1.371,15.294,3.872,22.248L8.822,184.335c-2.929,2.929-2.929,7.678,0,10.607c1.464,1.464,3.384,2.197,5.303,2.197
	c1.919,0,3.839-0.732,5.303-2.197L53.57,160.8c11.822,17.815,32.053,29.59,54.991,29.59c36.379,0,65.977-29.587,65.977-65.955
	c0-14.985-10.647-38.9-22.999-61.604l36.778-36.778C191.246,23.125,191.246,18.375,188.317,15.447z M57.601,124.435
	c0-21.813,32.555-75.641,50.96-103.518c6.925,10.483,15.853,24.639,24.296,39.381l-74.246,74.246
	C57.952,131.276,57.601,127.896,57.601,124.435z M159.537,124.435c0,28.097-22.868,50.955-50.977,50.955
	c-18.82,0-35.278-10.263-44.104-25.478L140.42,73.95C151.115,93.972,159.537,113.339,159.537,124.435z"/>
<g>
</g>
<g>
</g>
<g>
</g>
<g>
</g>
<g>
</g>
<g>
</g>
<g>
</g>
<g>
</g>
<g>
</g>
<g>
</g>
<g>
</g>
<g>
</g>
<g>
</g>
<g>
</g>
<g>
</g>
</svg>
